<svg xmlns="http://www.w3.org/2000/svg" version="1.1" xmlns:xlink="http://www.w3.org/1999/xlink" xmlns:svgjs="http://svgjs.dev/svgjs" viewBox="0 0 800 800"><defs><linearGradient x1="50%" y1="0%" x2="50%" y2="100%" id="ssscribble-grad"><stop stop-color="hsl(206, 75%, 49%)" stop-opacity="1" offset="0%"></stop><stop stop-color="hsl(331, 90%, 56%)" stop-opacity="1" offset="100%"></stop></linearGradient></defs><g fill="none" stroke-width="1.5" stroke="url(#ssscribble-grad)" stroke-linecap="round"><path d="M914.01 475.59C1021.93 508.45 1085.51 552.9 1090.95 606.58 1041.44 658.88 948.17 717.17 835.16 775.77 722.86 825.89 632.48 866.54 574.85 888.82 553.38 891.18 563.1 867.07 592.76 815.7 639.59 753.17 685.87 681.81 722.58 619.76 755.02 591.67 770.94 605.41 771.12 669.05 764.31 774.13 745.89 900.76 719.87 1016.72 691.5 1089.32 659.85 1095.36 626.99 1028.1 594.13 911.67 561.61 783.21 528.01 681.85 492.06 633.67 450.7 645.81 400.56 705.68 343.44 798.04 273.4 889.39 190.31 956.43 102.95 992.08 9.5 984.37 -80.39 940.16 -153.12 867.23 -201.8 778.39 -214.55 687.19 -191.13 594.1 -130.22 511.8 -42.01 443.06 46.91 380.64 121.47 329.73 158.29 287.47 140.17 247.8 69.94 212.22 -37.98 179.36 -156.33 146.5 -247.51 117.91 -289.16 95.61 -276.31 75.89 -210.4 67.02 -110.33 72.49 4.61 84.28 111.46 112.46 194.13 154.9 255.03 216.29 207.83 252.52 153.21 167.04 116.18 65.78 91.97 -55.02 82.36 -171.47 77.72 -255.43 86.14 -286.29 104.95 -250.81 125.85 -162.14 153.5 -40.35 186.36 76.08 219.22 143.36 255.73 144 296.81 84.1 339.97 -19.17 391.33 -127.1 452.91 -208.1 519.47 -247.67 597.8 -231.94 685.48 -169.65 771.69 -73.39 856.97 36.93 930.33 142.53 980.55 236.97 1000.93 308.26 983.54 356.55 935.09 384.93 857.7 398.39 766.85 405.22 690.86 403.57 643.66 405.06 643.49 414.73 697.82 423.02 795.66 442.73 914.01 475.59Q914.01 475.59 914.01 475.59" opacity="0.83"></path><path d="M880.01 582.77C981.25 613.28 1045.25 650.1 1059.88 690.7 1026.52 729.15 951.23 767.04 852 798.96 744.75 822.17 648.05 831.7 573.96 822.24 527.24 799.26 508.97 756.38 512.98 697.62 537.57 640.68 569.93 587.64 601.26 553.85 635.59 555.73 659.79 596.41 671.57 677.01 680.11 785.14 676.57 902.76 662.47 1002.72 646.81 1060.35 623.23 1058.77 592.72 994.1 562.21 886.87 526.2 766.71 484.31 665.74 440.87 606.49 388.9 598.45 327.48 635.57 262.82 708.97 188.37 793.06 107.01 867.18 28.65 924.42 -47.5 948.39 -112.08 939.38 -156.09 902.73 -173.99 843.58 -159.05 772.95 -116.73 692.6 -47.4 614.08 37.47 543.19 114.34 473.41 172.26 413.83 193.84 364.8 167.44 317.1 97.25 277.97 -3.98 247.45 -114.24 216.94 -202.43 196.49 -249.72 186.64 -251.17 178.12 -204.59 182.19 -123 199.09 -20.67 217.09 83.96 245.36 175.5 278.68 246.86 302.29 291.47 317.64 311.55 314.3 308.51 283.33 291.61 223.19 269.59 134.18 239.96 28.29 215.84 -83.15 201.4 -178.92 187.83 -238.42 185.94 -247.76 195.65 -200.3 206.4 -111.12 227.19 2.84 257.7 110.08 288.22 174.77 327 182.55 373.8 136.71 421.64 48.53 479.04 -51.71 545.49 -137.48 612.81 -195.72 687.17 -209.05 763.84 -179.17 832.88 -113.61 893.59 -24.39 936.62 72.53 956.54 171.28 948.1 257.97 908.52 327.98 848.75 384.48 771.47 425.2 691.52 454.87 632.29 475.84 603.08 493.46 616.31 512.55 675.37 529.5 769.75 552.26 880.01 582.77Q880.01 582.77 880.01 582.77" opacity="0.23"></path><path d="M846.01 626.82C940.37 654.99 1003.84 682.64 1026.05 707.91 1007.34 731.14 949.95 748.16 866.79 755.32 769.73 756.04 673.88 742.67 591.03 713.69 526.06 679.09 483.98 633.05 462.84 582.17 461.57 542.33 472.76 514.99 489.27 511.37 513.51 540.27 534.14 601.64 547.14 691.95 560.47 797.42 563.7 902.84 556.22 986.26 548.16 1029.9 530.1 1021.82 501.93 960.1 473.77 861.99 436.82 750.67 391.76 652.03 346.13 584.88 291.66 559.56 229.52 574.69 167.7 626.14 100.69 695.78 33.04 766.86 -26.87 833.85 -78.51 879.21 -114.14 898.84 -129.93 896.6 -121.24 870.76 -85.59 828.54 -32.08 773.12 38.5 712 114.92 651.82 177.44 588.6 218.79 531.54 226.63 483.37 193.55 435.2 124.37 396.4 30.01 368.23 -72.04 340.06 -156.45 323.85 -207.63 318.91 -221.24 313.96 -192.71 319.77 -130.4 334.18 -44.47 345.55 51.39 360.29 143.63 372.3 225.92 371.11 289.44 356.52 332.64 321.85 356.39 265.31 364.21 186.56 362.25 90.24 349.68 -10.15 336.3 -105.05 327.08 -177.16 315.47 -212.94 312.13 -203.66 318.82 -147.39 325.5 -59.63 342.61 45.96 370.78 144.08 398.94 205.81 436.83 219.63 483.27 186.86 529.7 114.31 584.29 24.93 644.7 -59.89 702.74 -129.56 762.51 -165.68 818.48 -165.25 863.86 -132.31 896.48 -71.57 909.64 5.17 903.35 92.97 873.24 179.44 820.27 257.46 757.36 329.84 686.75 389.6 621.46 437.69 579.8 479.35 567.3 513.56 591.78 543.46 653.83 571.3 743.95 598.65 846.01 626.82Q846.01 626.82 846.01 626.82" opacity="0.37"></path><path d="M812.01 592.53C930.31 628.09 963.49 662.08 877.47 653.78 794.47 641.69 705.76 618.13 621.85 584.62 546.94 552.46 488.03 517.04 446.21 485.33 420.53 469.3 408.56 469.85 405.49 493.9 411.95 544.03 420.09 618.57 425.63 711.41 433.95 809.29 435.77 900.18 429.11 967.11 422.75 997.98 407.07 984.5 381.25 926.1 355.43 837.02 320.7 735.01 278.36 640.47 236.33 568.55 187.54 529.39 134.47 524.59 84.19 553.24 33.53 603.66 -12.72 663.38 -49.43 728.73 -74.53 783.53 -82.7 821.44 -74.71 845.61 -46.42 849.39 1.59 836.09 58.63 810.22 124.17 773.98 188.25 733.04 235.21 686.94 260.78 641.89 256.64 601.55 218.55 560.25 151.29 525.8 64.01 499.98 -29.75 474.15 -109.61 458.19 -163.01 450.79 -186.48 442.43 -174.12 440.52 -130.81 441.87 -63.51 438.08 18.48 431.8 104.11 417.88 188.29 391.39 261.81 350.54 320.91 292.54 366.28 220.79 396.95 135.38 416.21 43.14 424.92 -43.45 428.47 -117.03 431.27 -164.61 429.95 -178.74 432.55 -154.29 441.66 -92.35 450.02 -7.78 466.56 88.98 492.38 178.07 518.2 236.48 552.07 255.21 592.41 234.32 631.99 177.36 676.36 101.16 722.43 22.21 764.38 -51.7 803.34 -103.09 834.43 -126.34 854.96 -123.51 861.36 -93.45 849.83 -43.58 824.57 21.96 781.66 94.45 724.37 166.4 665.62 239.71 606.78 305.79 558.4 362.63 534.02 416.49 536.35 461.81 569.78 499.46 633.15 535.78 718.24 566.71 812.01 592.53Q812.01 592.53 812.01 592.53" opacity="0.20"></path><path d="M778.05 491.74C858.06 515.22 917.75 529.39 950.13 534.49 955.15 539.17 930.59 534.26 882.1 520.38 815.61 506.77 738.99 486.06 660.88 461.42 584.54 442.66 517.26 426.87 461.96 419.9 417.59 428.89 385.43 454.64 363.09 500.26 349.55 564.03 341.05 643.83 334.11 732.65 330.97 819.04 325.4 894.04 315.07 945.08 305.55 964.56 289.57 946.83 266.1 892.11 242.62 811.95 212.78 719.59 178.02 630.73 144.09 557.11 106.96 507.88 69.42 486.31 35.69 493.32 5.53 522.38 -17.09 565.04 -30.93 619.38 -32.47 672.13 -18.86 716.52 5.67 755.39 45.11 779.6 97.01 789.24 150.69 789.77 206.25 778.51 255.54 759.06 286.83 734.46 298.03 706.3 283.95 677.86 242.51 648.1 178.06 620.67 98.05 597.2 12.64 573.72 -61.98 555.33 -115.97 540.82 -146.9 524.99 -148.36 510.45 -122.76 494.37 -74.82 473.14 -10.01 445.75 63.24 409.05 141.13 363.23 215.51 305.33 281.63 235.69 340.27 160.54 387.6 79.96 424.39 1.18 452.88 -65.92 474.19 -116.02 491.3 -140.24 504.11 -135.87 516.74 -100.01 531.59 -35.45 545.36 44.35 563.48 131.95 586.95 212.11 610.42 266.83 638.14 289.31 668.62 278.89 698.04 236.91 728.11 175.26 755.98 106.09 779.55 34.47 796.9 -24.27 804.59 -63.6 803.98 -84.78 790.35 -82.7 762.48 -60.92 727.13 -23.19 680.58 26.29 627.12 81.22 578.3 142.04 534.54 201.41 503.8 255.69 495.39 310.25 510.21 357.86 550.19 397.44 613.23 436.61 692.61 468.26 778.01 491.73Q778.05 491.74 778.05 491.74" opacity="0.77"></path><path d="M743.65 359.15C816.29 380.28 872.89 392.55 908.01 396.76 921.82 401.3 911.13 398.6 879.28 390.39 830.36 384.55 769.16 376.27 702.26 368.95 632.04 369.13 564.93 375.84 504.56 393.01 449.75 423.29 404.01 467.69 366.99 526.53 336.38 595.67 312.12 673.31 292.1 752.74 275.62 824.93 260.24 883.59 244.11 919.87 228.91 929.52 211.14 908.7 190.02 858 168.89 786.65 145.42 704.18 120.77 622.35 97.06 549.87 74.01 494.49 53.89 460.09 37.3 448.36 26.76 456.51 24.82 479.48 29.28 516.56 44.69 558.1 71.82 598.14 104.5 639.25 146.56 672.02 194.79 694.54 239.68 712.48 281.94 719.91 315.38 718.18 331.74 712.79 330.41 700.91 308.45 684.58 265.18 667.11 204.29 647.31 131.65 626.19 54.68 605.06 -14.03 583.61 -66.99 561.24 -102.84 537.73 -115.28 511.18 -105.13 479.97 -75.67 445.09 -29.36 402.88 27.84 352.38 93.16 297.3 160.33 234.2 224.63 165.41 286.89 97.68 342.1 31.09 389.25 -27.98 431.36 -72.95 466.35 -100.05 495.53 -103.81 521.36 -84.9 544.04 -41.55 565.1 22.76 585.18 96.43 605.5 174.61 626.62 245.97 647.75 296.68 668.68 321.8 688.44 320.31 707.21 292.19 722.97 245.55 733.74 188.85 741.18 124.9 740.98 66.21 731.42 19.06 716.83 -17.78 691.95 -37.13 657.38 -39.73 620.77 -29.22 578.65 -5.6 535.32 26.77 500.11 66.65 472.74 109.72 458.76 152.17 464.1 196.99 488.57 238.12 532.57 273.42 593.69 309.05 666.68 338.03 743.65 359.15Q743.65 359.15 743.65 359.15" opacity="0.17"></path><path d="M710.04 240.82C775.05 259.6 827.61 272.62 863.65 280.72 883.72 289.53 884.28 294.84 867.12 298.48 835.12 305.15 790.66 313.16 738.39 325.12 680 343.74 620.39 369.9 563.13 405.48 507.01 449.73 456.32 504.05 412.05 567.03 371.26 633.77 336.42 703.07 306.83 769.25 279.69 825.83 255.95 868.63 234.64 891.69 214.08 893.2 194.55 870.42 175.77 824.08 156.99 761.39 139.86 688.94 125 615.27 110.9 546.5 100.48 488.8 95.08 445.98 94.08 414.69 135.08 443 178.46 483.19 211.11 516.06 248.45 546.06 287.29 570.48 333.82 602.49 363.64 625.18 330.71 617.53 287.42 609.55 231.05 596.04 166.04 577.27 97.56 558.49 35.22 535.32 -15.44 507.89 -54.04 479.8 -74.78 446.29 -77.52 407.13 -64.72 366.33 -36.64 319.14 2.84 266.32 51.64 212.97 105.63 156 160.82 98.53 217.84 46.12 271.88 -0.93 321.01 -37.75 368.32 -60.97 409.98 -67.76 445.89 -55.26 479.92 -26.2 509.36 20.79 534.69 82.32 559.37 148.74 581.1 217.39 599.88 280.08 626.13 339.71 656.78 326.87 657.65 267.99 654.29 215.58 643.55 163.12 625.18 115.93 605 72.5 577.91 40.45 545.5 20.8 514.93 9.83 483.2 10.64 453.95 20.96 434 37.94 422.76 60.85 423.72 86.72 440.22 115.62 471.64 144.47 517.48 171.08 575.39 198.39 641.52 222.04 710 240.81Q710.04 240.82 710.04 240.82" opacity="0.60"></path><path d="M676 177.39C783.93 210.25 843.16 237.89 845.33 267.57 800.65 307.26 719.15 365.74 626.4 450.58 526.7 552.01 439.12 670.53 371.33 779.26 308.1 848.9 260.02 857.35 227.16 790.07 194.3 673.63 179.77 544.7 186.05 442.74 196.89 383.92 233.19 371.02 289.81 387.22 339.5 428.96 386.14 467.2 406.73 486.17 380.48 505.42 307.93 499.86 200 466.99 81.65 434.13 -4.36 377.09 -39.53 300.88 -29.06 224.97 26.46 135.45 104.36 50.64 197.47 -8.63 286.34 -30.58 358.47 4.14 428.68 82.02 481.66 197.63 514.52 314.07 547.38 381.35 557.01 386.22 543.75 340.67 528.57 256.02 490.99 172.36 440.95 113.99 406.12 72.23 385.44 65.03 399.06 82.29 458.31 109.55 557.65 144.53 676 177.39Q676 177.39 676 177.39" opacity="0.70"></path><path d="M642.05 190.83C736.39 219 795.81 255.7 813.28 302.94 796.3 355.95 746.59 427.61 681 516.3 603.38 607.89 528.26 703.18 466.11 780.7 404.33 823.42 357.37 817.82 329.2 756.11 301.03 658 294.33 546.41 307.3 449.01 320.63 376.7 351.8 336.8 392.5 322.99 421.18 332.19 441 347.53 437.35 355.33 399.22 367.19 328.39 361.73 234.05 333.56 131.98 305.39 52.25 257.19 8.47 196.52 -4.17 139.9 19.74 80.61 66.79 34.5 130.46 11.38 198.51 21.4 258.23 73.06 319.67 149.8 367.35 249.97 395.51 348.08 423.69 409.81 429.68 426.83 417.06 404.77 406.15 347.89 382.06 282.48 355.3 227.8 345.16 176.02 351.11 148.33 384.39 144.12 448.81 145.69 539.95 162.66 642.01 190.82Q642.05 190.83 642.05 190.83" opacity="0.93"></path><path d="M608.05 276.5C688.06 299.97 744.12 338.64 771 390.29 775.03 443.65 753.21 511.29 715.32 586.93 665.47 657.74 611.94 724.37 564.23 771.79 514.63 792.12 475.49 776.83 452.02 722.11 428.55 641.95 422.97 549.42 431.89 462.72 438.92 387.84 455.82 332.8 474.9 297.56 482.03 278.43 478.95 269.11 457.72 261.07 413.64 257.69 348.06 246.57 268.05 223.1 182.64 199.63 112.1 166.03 65.7 128.73 38.25 96.09 37.67 68.78 57.29 57.14 90.54 61.61 132.56 91.76 173.6 149.42 217.72 218.91 254.38 301.92 277.85 382.08 305.36 449.22 302.89 407.43 297.71 346.52 308.85 301.64 334.32 270.63 378.97 257.94 442.56 246.97 522.61 253.02 608.01 276.49Q608.05 276.5 608.05 276.5" opacity="0.39"></path><path d="M573.87 404.77C638.9 423.55 688.41 456.57 718.91 499.93 736.15 542.61 735.18 593.47 720.68 645.81 697.37 691.19 667.65 729.37 637.95 751.29 605.97 754.92 578.49 734.39 559.71 688.06 540.93 625.36 532.63 552.77 532.07 481.4 529.23 413.57 529.65 355.86 528.35 311.09 518.23 274.91 499.28 248 468.28 227.17 424.02 209.63 366.9 192.46 301.87 173.69 233.39 154.91 174.46 136.3 130.85 121.3 97.1 109.58 81.21 107.19 80.8 118.76 89.14 138.92 107.12 176.71 129.07 230.77 153.7 288.38 177.32 353.36 196.1 416.06 220.96 476.46 251.21 483.38 273.13 453.48 298.15 425.75 333.96 404.19 381.48 394.06 438.85 383.24 505.39 386 573.87 404.77Q573.87 404.77 573.87 404.77" opacity="0.62"></path><path d="M540.05 531.48C634.39 559.64 685.65 619.33 692.66 678.56 680.27 716.33 648.5 715.82 620.34 654.11 592.17 555.99 572.93 443.87 548.41 357.16 504.48 282.39 430.39 230.68 336.05 202.51 233.97 174.34 163.66 175.06 137.48 212.91 128.05 262.71 145.83 351.99 174 450.11 202.16 511.82 235.39 535.16 281.73 534.31 344.82 512 437.97 503.31 540.05 531.48Q540.05 531.48 540.05 531.48" opacity="0.68"></path><path d="M506.01 612.71C626.68 650.27 654.02 691.41 616.47 620.1 578.91 485.09 490.68 337.05 370.01 299.49 235.85 261.94 180.67 349.09 218.23 484.1 255.78 555.41 371.85 575.16 506.01 612.71Q506.01 612.71 506.01 612.71" opacity="0.42"></path></g></svg>